G04 EAGLE Gerber RS-274X export*
G75*
%MOMM*%
%FSLAX34Y34*%
%LPD*%
%INTop Copper*%
%IPPOS*%
%AMOC8*
5,1,8,0,0,1.08239X$1,22.5*%
G01*
G04 Define Apertures*
%ADD10R,2.100000X2.100000*%
%ADD11C,2.100000*%
%ADD12C,2.552700*%
%ADD13C,1.650000*%
%ADD14R,1.295400X1.295400*%
%ADD15C,0.152400*%
D10*
X165100Y889000D03*
D11*
X207100Y889000D03*
X249100Y889000D03*
X291100Y889000D03*
X165100Y834000D03*
X207100Y834000D03*
X249100Y834000D03*
X291100Y834000D03*
D12*
X1473200Y736600D03*
X1473200Y654100D03*
X1473200Y571600D03*
X1473200Y489100D03*
D13*
X1485900Y406400D03*
X1460500Y406400D03*
X1435100Y406400D03*
X1409700Y406400D03*
D10*
X368300Y889000D03*
D11*
X410300Y889000D03*
X452300Y889000D03*
X494300Y889000D03*
X368300Y834000D03*
X410300Y834000D03*
X452300Y834000D03*
X494300Y834000D03*
D10*
X571500Y889000D03*
D11*
X613500Y889000D03*
X655500Y889000D03*
X697500Y889000D03*
X571500Y834000D03*
X613500Y834000D03*
X655500Y834000D03*
X697500Y834000D03*
D10*
X774700Y889000D03*
D11*
X816700Y889000D03*
X858700Y889000D03*
X900700Y889000D03*
X774700Y834000D03*
X816700Y834000D03*
X858700Y834000D03*
X900700Y834000D03*
D10*
X977900Y889000D03*
D11*
X1019900Y889000D03*
X1061900Y889000D03*
X1103900Y889000D03*
X977900Y834000D03*
X1019900Y834000D03*
X1061900Y834000D03*
X1103900Y834000D03*
D10*
X1181100Y889000D03*
D11*
X1223100Y889000D03*
X1265100Y889000D03*
X1307100Y889000D03*
X1181100Y834000D03*
X1223100Y834000D03*
X1265100Y834000D03*
X1307100Y834000D03*
D10*
X1384300Y889000D03*
D11*
X1426300Y889000D03*
X1468300Y889000D03*
X1510300Y889000D03*
X1384300Y834000D03*
X1426300Y834000D03*
X1468300Y834000D03*
X1510300Y834000D03*
D13*
X622300Y495300D03*
X622300Y469900D03*
X647700Y495300D03*
X647700Y469900D03*
X673100Y495300D03*
X673100Y469900D03*
X698500Y469900D03*
X698500Y495300D03*
X723900Y469900D03*
X723900Y495300D03*
X838200Y495300D03*
X838200Y469900D03*
X863600Y495300D03*
X863600Y469900D03*
X889000Y495300D03*
X889000Y469900D03*
X914400Y469900D03*
X914400Y495300D03*
X939800Y469900D03*
X939800Y495300D03*
X190500Y495300D03*
X190500Y469900D03*
X215900Y495300D03*
X215900Y469900D03*
X241300Y495300D03*
X241300Y469900D03*
X266700Y469900D03*
X266700Y495300D03*
X292100Y469900D03*
X292100Y495300D03*
X406400Y495300D03*
X406400Y469900D03*
X431800Y495300D03*
X431800Y469900D03*
X457200Y495300D03*
X457200Y469900D03*
X482600Y469900D03*
X482600Y495300D03*
X508000Y469900D03*
X508000Y495300D03*
D14*
X165100Y635000D03*
X190500Y635000D03*
X215900Y635000D03*
X241300Y635000D03*
X266700Y635000D03*
X292100Y635000D03*
X317500Y635000D03*
X342900Y635000D03*
X368300Y635000D03*
X368300Y711200D03*
X342900Y711200D03*
X317500Y711200D03*
X292100Y711200D03*
X266700Y711200D03*
X241300Y711200D03*
X215900Y711200D03*
X190500Y711200D03*
X165100Y711200D03*
X444500Y635000D03*
X469900Y635000D03*
X495300Y635000D03*
X520700Y635000D03*
X546100Y635000D03*
X571500Y635000D03*
X596900Y635000D03*
X622300Y635000D03*
X647700Y635000D03*
X647700Y711200D03*
X622300Y711200D03*
X596900Y711200D03*
X571500Y711200D03*
X546100Y711200D03*
X520700Y711200D03*
X495300Y711200D03*
X469900Y711200D03*
X444500Y711200D03*
X723900Y635000D03*
X749300Y635000D03*
X774700Y635000D03*
X800100Y635000D03*
X825500Y635000D03*
X850900Y635000D03*
X876300Y635000D03*
X901700Y635000D03*
X927100Y635000D03*
X927100Y711200D03*
X901700Y711200D03*
X876300Y711200D03*
X850900Y711200D03*
X825500Y711200D03*
X800100Y711200D03*
X774700Y711200D03*
X749300Y711200D03*
X723900Y711200D03*
D13*
X1198880Y419100D03*
X1173480Y419100D03*
X1148080Y419100D03*
D15*
X1473708Y573024D02*
X1473708Y632460D01*
X1488948Y647700D01*
X1488948Y720852D01*
X1473200Y736600D01*
X1473708Y573024D02*
X1473200Y571600D01*
X1264920Y833628D02*
X1223772Y833628D01*
X1223100Y834000D01*
X1264920Y833628D02*
X1265100Y834000D01*
X1266444Y833628D02*
X1306068Y833628D01*
X1307100Y834000D01*
X1266444Y833628D02*
X1265100Y834000D01*
X1426464Y833628D02*
X1467612Y833628D01*
X1426464Y833628D02*
X1426300Y834000D01*
X1467612Y833628D02*
X1468300Y834000D01*
X1469136Y833628D02*
X1473708Y833628D01*
X1510284Y833628D01*
X1510300Y834000D01*
X1469136Y833628D02*
X1468300Y834000D01*
X1367028Y835152D02*
X1307592Y835152D01*
X1367028Y835152D02*
X1379220Y847344D01*
X1412748Y847344D01*
X1424940Y835152D01*
X1307592Y835152D02*
X1307100Y834000D01*
X1424940Y835152D02*
X1426300Y834000D01*
X1473708Y833628D02*
X1473708Y737616D01*
X1473200Y736600D01*
X1473708Y833628D02*
X1468300Y834000D01*
X248412Y833628D02*
X207264Y833628D01*
X207100Y834000D01*
X248412Y833628D02*
X249100Y834000D01*
X249936Y833628D02*
X291084Y833628D01*
X291100Y834000D01*
X249936Y833628D02*
X249100Y834000D01*
X411480Y833628D02*
X451104Y833628D01*
X452300Y834000D01*
X411480Y833628D02*
X410300Y834000D01*
X452628Y833628D02*
X493776Y833628D01*
X494300Y834000D01*
X452628Y833628D02*
X452300Y834000D01*
X656844Y833628D02*
X696468Y833628D01*
X697500Y834000D01*
X656844Y833628D02*
X655500Y834000D01*
X1021080Y833628D02*
X1060704Y833628D01*
X1021080Y833628D02*
X1019900Y834000D01*
X1060704Y833628D02*
X1061900Y834000D01*
X1062228Y833628D02*
X1103376Y833628D01*
X1103900Y834000D01*
X1062228Y833628D02*
X1061900Y834000D01*
X858012Y833628D02*
X816864Y833628D01*
X816700Y834000D01*
X858012Y833628D02*
X858700Y834000D01*
X757428Y835152D02*
X697992Y835152D01*
X757428Y835152D02*
X769620Y847344D01*
X803148Y847344D01*
X815340Y835152D01*
X697992Y835152D02*
X697500Y834000D01*
X815340Y835152D02*
X816700Y834000D01*
X1198880Y419100D02*
X1403604Y419100D01*
X1472184Y487680D01*
X1473200Y489100D01*
X428244Y635508D02*
X368808Y635508D01*
X428244Y635508D02*
X437388Y644652D01*
X638556Y644652D01*
X647700Y635508D01*
X368808Y635508D02*
X368300Y635000D01*
X917448Y635508D02*
X926592Y635508D01*
X917448Y635508D02*
X908304Y644652D01*
X656844Y644652D01*
X647700Y635508D01*
X926592Y635508D02*
X927100Y635000D01*
X647700Y635508D02*
X647700Y635000D01*
X1188720Y419100D02*
X1198880Y419100D01*
X1188720Y419100D02*
X1088136Y519684D01*
X1002792Y519684D01*
X928116Y594360D01*
X928116Y633984D01*
X927100Y635000D01*
X166116Y633984D02*
X166116Y534924D01*
X204216Y496824D01*
X204216Y481584D01*
X215900Y469900D01*
X166116Y633984D02*
X165100Y635000D01*
X190500Y635000D02*
X190500Y519684D01*
X214884Y495300D01*
X215900Y495300D01*
X216408Y510540D02*
X216408Y633984D01*
X216408Y510540D02*
X230124Y496824D01*
X230124Y481584D01*
X240792Y470916D01*
X216408Y633984D02*
X215900Y635000D01*
X240792Y470916D02*
X241300Y469900D01*
X242316Y495300D02*
X242316Y633984D01*
X241300Y635000D01*
X241300Y495300D02*
X242316Y495300D01*
X266700Y510540D02*
X266700Y635000D01*
X266700Y510540D02*
X256032Y499872D01*
X256032Y481584D01*
X266700Y470916D01*
X266700Y469900D01*
X291084Y519684D02*
X291084Y633984D01*
X291084Y519684D02*
X266700Y495300D01*
X291084Y633984D02*
X292100Y635000D01*
X316992Y633984D02*
X316992Y536448D01*
X280416Y499872D01*
X280416Y481584D01*
X292100Y469900D01*
X316992Y633984D02*
X317500Y635000D01*
X342900Y635000D02*
X342900Y545592D01*
X292608Y495300D01*
X292100Y495300D01*
X443484Y505968D02*
X443484Y633984D01*
X443484Y505968D02*
X432816Y495300D01*
X443484Y633984D02*
X444500Y635000D01*
X432816Y495300D02*
X431800Y495300D01*
X469392Y507492D02*
X469392Y633984D01*
X469392Y507492D02*
X457200Y495300D01*
X469392Y633984D02*
X469900Y635000D01*
X495300Y635000D02*
X495300Y507492D01*
X483108Y495300D01*
X482600Y495300D01*
X521208Y595884D02*
X521208Y633984D01*
X521208Y595884D02*
X621792Y495300D01*
X521208Y633984D02*
X520700Y635000D01*
X621792Y495300D02*
X622300Y495300D01*
X547116Y586740D02*
X547116Y633984D01*
X547116Y586740D02*
X637032Y496824D01*
X637032Y481584D01*
X647700Y470916D01*
X547116Y633984D02*
X546100Y635000D01*
X647700Y470916D02*
X647700Y469900D01*
X571500Y571500D02*
X571500Y635000D01*
X571500Y571500D02*
X647700Y495300D01*
X597408Y560832D02*
X597408Y633984D01*
X597408Y560832D02*
X661416Y496824D01*
X661416Y481584D01*
X673100Y469900D01*
X597408Y633984D02*
X596900Y635000D01*
X623316Y633984D02*
X623316Y544068D01*
X672084Y495300D01*
X623316Y633984D02*
X622300Y635000D01*
X672084Y495300D02*
X673100Y495300D01*
X748284Y544068D02*
X748284Y633984D01*
X748284Y544068D02*
X699516Y495300D01*
X748284Y633984D02*
X749300Y635000D01*
X699516Y495300D02*
X698500Y495300D01*
X774192Y521208D02*
X774192Y633984D01*
X774192Y521208D02*
X723900Y470916D01*
X774192Y633984D02*
X774700Y635000D01*
X723900Y470916D02*
X723900Y469900D01*
X800100Y533400D02*
X800100Y635000D01*
X800100Y533400D02*
X838200Y495300D01*
X826008Y531876D02*
X826008Y633984D01*
X826008Y531876D02*
X862584Y495300D01*
X826008Y633984D02*
X825500Y635000D01*
X862584Y495300D02*
X863600Y495300D01*
X851916Y573024D02*
X851916Y633984D01*
X851916Y573024D02*
X928116Y496824D01*
X928116Y481584D01*
X939800Y469900D01*
X851916Y633984D02*
X850900Y635000D01*
X166116Y711708D02*
X166116Y816864D01*
X205740Y856488D01*
X205740Y888492D01*
X166116Y711708D02*
X165100Y711200D01*
X205740Y888492D02*
X207100Y889000D01*
X242316Y726948D02*
X242316Y711708D01*
X242316Y726948D02*
X403860Y888492D01*
X409956Y888492D01*
X242316Y711708D02*
X241300Y711200D01*
X409956Y888492D02*
X410300Y889000D01*
X289560Y734568D02*
X266700Y711708D01*
X289560Y734568D02*
X289560Y736092D01*
X441960Y888492D01*
X451104Y888492D01*
X266700Y711708D02*
X266700Y711200D01*
X451104Y888492D02*
X452300Y889000D01*
X292608Y734568D02*
X292608Y711708D01*
X292608Y734568D02*
X432816Y874776D01*
X480060Y874776D01*
X493776Y888492D01*
X292608Y711708D02*
X292100Y711200D01*
X493776Y888492D02*
X494300Y889000D01*
X326136Y711708D02*
X318516Y711708D01*
X326136Y711708D02*
X434340Y819912D01*
X533400Y819912D01*
X601980Y888492D01*
X612648Y888492D01*
X318516Y711708D02*
X317500Y711200D01*
X612648Y888492D02*
X613500Y889000D01*
X445008Y726948D02*
X445008Y711708D01*
X445008Y726948D02*
X592836Y874776D01*
X682752Y874776D01*
X696468Y888492D01*
X445008Y711708D02*
X444500Y711200D01*
X696468Y888492D02*
X697500Y889000D01*
X630936Y871728D02*
X470916Y711708D01*
X630936Y871728D02*
X798576Y871728D01*
X815340Y888492D01*
X470916Y711708D02*
X469900Y711200D01*
X815340Y888492D02*
X816700Y889000D01*
X504444Y711708D02*
X495300Y711708D01*
X504444Y711708D02*
X612648Y819912D01*
X623316Y819912D01*
X672084Y868680D01*
X838200Y868680D01*
X858012Y888492D01*
X495300Y711708D02*
X495300Y711200D01*
X858012Y888492D02*
X858700Y889000D01*
X530352Y711708D02*
X521208Y711708D01*
X530352Y711708D02*
X638556Y819912D01*
X864108Y819912D01*
X900684Y856488D01*
X900684Y888492D01*
X521208Y711708D02*
X520700Y711200D01*
X900684Y888492D02*
X900700Y889000D01*
X554736Y711708D02*
X547116Y711708D01*
X554736Y711708D02*
X659892Y816864D01*
X941832Y816864D01*
X1013460Y888492D01*
X1019556Y888492D01*
X547116Y711708D02*
X546100Y711200D01*
X1019556Y888492D02*
X1019900Y889000D01*
X580644Y711708D02*
X571500Y711708D01*
X580644Y711708D02*
X682752Y813816D01*
X947928Y813816D01*
X954024Y819912D01*
X987552Y819912D01*
X1056132Y888492D01*
X1060704Y888492D01*
X571500Y711708D02*
X571500Y711200D01*
X1060704Y888492D02*
X1061900Y889000D01*
X733044Y711708D02*
X723900Y711708D01*
X733044Y711708D02*
X832104Y810768D01*
X949452Y810768D01*
X955548Y816864D01*
X1144524Y816864D01*
X1216152Y888492D01*
X1222248Y888492D01*
X723900Y711708D02*
X723900Y711200D01*
X1222248Y888492D02*
X1223100Y889000D01*
X809244Y711708D02*
X800100Y711708D01*
X809244Y711708D02*
X902208Y804672D01*
X947928Y804672D01*
X957072Y813816D01*
X1179576Y813816D01*
X1240536Y874776D01*
X1411224Y874776D01*
X1424940Y888492D01*
X800100Y711708D02*
X800100Y711200D01*
X1424940Y888492D02*
X1426300Y889000D01*
X859536Y711708D02*
X851916Y711708D01*
X859536Y711708D02*
X958596Y810768D01*
X1181100Y810768D01*
X1242060Y871728D01*
X1493520Y871728D01*
X1510284Y888492D01*
X851916Y711708D02*
X850900Y711200D01*
X1510284Y888492D02*
X1510300Y889000D01*
X1446276Y405384D02*
X1435608Y405384D01*
X1446276Y405384D02*
X1456944Y394716D01*
X1475232Y394716D01*
X1485900Y405384D01*
X1435608Y405384D02*
X1435100Y406400D01*
X1485900Y406400D02*
X1485900Y405384D01*
X1173480Y419100D02*
X1164336Y419100D01*
X1124712Y458724D01*
X201168Y458724D01*
X190500Y469392D01*
X190500Y469900D01*
M02*
