G04 EAGLE Gerber RS-274X export*
G75*
%MOMM*%
%FSLAX34Y34*%
%LPD*%
%INBottom Copper*%
%IPPOS*%
%AMOC8*
5,1,8,0,0,1.08239X$1,22.5*%
G01*
G04 Define Apertures*
%ADD10R,2.100000X2.100000*%
%ADD11C,2.100000*%
%ADD12R,1.295400X1.295400*%
%ADD13C,2.781300*%
%ADD14C,1.650000*%
%ADD15C,0.152400*%
D10*
X254000Y762000D03*
D11*
X296000Y762000D03*
X338000Y762000D03*
X380000Y762000D03*
X254000Y707000D03*
X296000Y707000D03*
X338000Y707000D03*
X380000Y707000D03*
D10*
X457200Y762000D03*
D11*
X499200Y762000D03*
X541200Y762000D03*
X583200Y762000D03*
X457200Y707000D03*
X499200Y707000D03*
X541200Y707000D03*
X583200Y707000D03*
D10*
X660400Y762000D03*
D11*
X702400Y762000D03*
X744400Y762000D03*
X786400Y762000D03*
X660400Y707000D03*
X702400Y707000D03*
X744400Y707000D03*
X786400Y707000D03*
D10*
X863600Y762000D03*
D11*
X905600Y762000D03*
X947600Y762000D03*
X989600Y762000D03*
X863600Y707000D03*
X905600Y707000D03*
X947600Y707000D03*
X989600Y707000D03*
D10*
X1066800Y762000D03*
D11*
X1108800Y762000D03*
X1150800Y762000D03*
X1192800Y762000D03*
X1066800Y707000D03*
X1108800Y707000D03*
X1150800Y707000D03*
X1192800Y707000D03*
D12*
X254000Y520700D03*
X279400Y520700D03*
X304800Y520700D03*
X330200Y520700D03*
X355600Y520700D03*
X381000Y520700D03*
X406400Y520700D03*
X431800Y520700D03*
X457200Y520700D03*
X457200Y596900D03*
X431800Y596900D03*
X406400Y596900D03*
X381000Y596900D03*
X355600Y596900D03*
X330200Y596900D03*
X304800Y596900D03*
X279400Y596900D03*
X254000Y596900D03*
X508000Y520700D03*
X533400Y520700D03*
X558800Y520700D03*
X584200Y520700D03*
X609600Y520700D03*
X635000Y520700D03*
X660400Y520700D03*
X685800Y520700D03*
X711200Y520700D03*
X711200Y596900D03*
X685800Y596900D03*
X660400Y596900D03*
X635000Y596900D03*
X609600Y596900D03*
X584200Y596900D03*
X558800Y596900D03*
X533400Y596900D03*
X508000Y596900D03*
D13*
X1231900Y571500D03*
X1231900Y489001D03*
X1231900Y406502D03*
X1231900Y324002D03*
D14*
X304800Y393700D03*
X304800Y368300D03*
X330200Y393700D03*
X330200Y368300D03*
X355600Y393700D03*
X355600Y368300D03*
X381000Y368300D03*
X381000Y393700D03*
X406400Y368300D03*
X406400Y393700D03*
X533400Y393700D03*
X533400Y368300D03*
X558800Y393700D03*
X558800Y368300D03*
X584200Y393700D03*
X584200Y368300D03*
X609600Y368300D03*
X609600Y393700D03*
X635000Y368300D03*
X635000Y393700D03*
D15*
X882650Y708025D02*
X904875Y708025D01*
X882650Y708025D02*
X869950Y720725D01*
X800100Y720725D01*
X787400Y708025D01*
X904875Y708025D02*
X905600Y707000D01*
X787400Y708025D02*
X786400Y707000D01*
X739775Y492125D02*
X1231900Y492125D01*
X739775Y492125D02*
X711200Y520700D01*
X1231900Y492125D02*
X1231900Y489001D01*
X279400Y520700D02*
X279400Y444500D01*
X330200Y393700D01*
X304800Y434975D02*
X304800Y520700D01*
X304800Y434975D02*
X342900Y396875D01*
X342900Y381000D01*
X355600Y368300D01*
X330200Y419100D02*
X330200Y520700D01*
X330200Y419100D02*
X355600Y393700D01*
X355600Y409575D02*
X355600Y520700D01*
X355600Y409575D02*
X368300Y396875D01*
X368300Y381000D01*
X381000Y368300D01*
X406400Y409575D02*
X406400Y520700D01*
X406400Y409575D02*
X393700Y396875D01*
X393700Y381000D01*
X406400Y368300D01*
X431800Y419100D02*
X431800Y520700D01*
X431800Y419100D02*
X406400Y393700D01*
X279400Y596900D02*
X279400Y669925D01*
X336550Y727075D01*
X336550Y762000D01*
X338000Y762000D01*
X304800Y654050D02*
X304800Y596900D01*
X304800Y654050D02*
X377825Y727075D01*
X377825Y762000D01*
X380000Y762000D01*
X441325Y708025D02*
X330200Y596900D01*
X441325Y708025D02*
X441325Y711200D01*
X492125Y762000D01*
X499200Y762000D01*
X361950Y596900D02*
X355600Y596900D01*
X361950Y596900D02*
X457200Y692150D01*
X463550Y692150D01*
X533400Y762000D01*
X541200Y762000D01*
X387350Y596900D02*
X381000Y596900D01*
X387350Y596900D02*
X482600Y692150D01*
X508000Y692150D01*
X577850Y762000D01*
X583200Y762000D01*
X412750Y596900D02*
X406400Y596900D01*
X412750Y596900D02*
X504825Y688975D01*
X600075Y688975D01*
X657225Y746125D01*
X685800Y746125D01*
X701675Y762000D01*
X702400Y762000D01*
X514350Y596900D02*
X508000Y596900D01*
X514350Y596900D02*
X660400Y742950D01*
X765175Y742950D01*
X784225Y762000D01*
X786400Y762000D01*
X533400Y606425D02*
X533400Y596900D01*
X533400Y606425D02*
X666750Y739775D01*
X882650Y739775D01*
X904875Y762000D01*
X905600Y762000D01*
X558800Y625475D02*
X558800Y596900D01*
X558800Y625475D02*
X669925Y736600D01*
X920750Y736600D01*
X946150Y762000D01*
X947600Y762000D01*
X584200Y609600D02*
X584200Y596900D01*
X584200Y609600D02*
X708025Y733425D01*
X958850Y733425D01*
X987425Y762000D01*
X989600Y762000D01*
X615950Y596900D02*
X609600Y596900D01*
X615950Y596900D02*
X749300Y730250D01*
X1076325Y730250D01*
X1108075Y762000D01*
X1108800Y762000D01*
X641350Y596900D02*
X635000Y596900D01*
X641350Y596900D02*
X736600Y692150D01*
X752475Y692150D01*
X787400Y727075D01*
X1114425Y727075D01*
X1149350Y762000D01*
X1150800Y762000D01*
X666750Y596900D02*
X660400Y596900D01*
X666750Y596900D02*
X762000Y692150D01*
X1117600Y692150D01*
X1187450Y762000D01*
X1192800Y762000D01*
X346075Y327025D02*
X304800Y368300D01*
X346075Y327025D02*
X1231900Y327025D01*
X1231900Y324002D01*
X304800Y384175D02*
X304800Y393700D01*
X304800Y384175D02*
X317500Y371475D01*
X317500Y365125D01*
X330200Y352425D01*
X1177925Y352425D01*
X1231900Y406400D01*
X1231900Y406502D01*
X533400Y460375D02*
X533400Y520700D01*
X533400Y460375D02*
X596900Y396875D01*
X596900Y365125D01*
X606425Y355600D01*
X622300Y355600D01*
X635000Y368300D01*
X635000Y409575D02*
X635000Y520700D01*
X635000Y409575D02*
X622300Y396875D01*
X622300Y381000D01*
X609600Y368300D01*
M02*
