G04 EAGLE Gerber RS-274X export*
G75*
%MOMM*%
%FSLAX34Y34*%
%LPD*%
%INSilkscreen Bottom*%
%IPPOS*%
%AMOC8*
5,1,8,0,0,1.08239X$1,22.5*%
G01*
G04 Define Apertures*
%ADD10C,0.508000*%
D10*
X1231900Y670382D02*
X1231778Y670380D01*
X1231656Y670374D01*
X1231534Y670364D01*
X1231413Y670351D01*
X1231292Y670333D01*
X1231172Y670312D01*
X1231052Y670286D01*
X1230934Y670257D01*
X1230816Y670225D01*
X1230699Y670188D01*
X1230584Y670148D01*
X1230470Y670104D01*
X1230358Y670056D01*
X1230247Y670005D01*
X1230138Y669950D01*
X1230030Y669892D01*
X1229925Y669830D01*
X1229822Y669765D01*
X1229720Y669697D01*
X1229621Y669625D01*
X1229525Y669551D01*
X1229430Y669473D01*
X1229339Y669392D01*
X1229249Y669309D01*
X1229163Y669223D01*
X1229080Y669133D01*
X1228999Y669042D01*
X1228921Y668947D01*
X1228847Y668851D01*
X1228775Y668752D01*
X1228707Y668650D01*
X1228642Y668547D01*
X1228580Y668442D01*
X1228522Y668334D01*
X1228467Y668225D01*
X1228416Y668114D01*
X1228368Y668002D01*
X1228324Y667888D01*
X1228284Y667773D01*
X1228247Y667656D01*
X1228215Y667538D01*
X1228186Y667420D01*
X1228160Y667300D01*
X1228139Y667180D01*
X1228121Y667059D01*
X1228108Y666938D01*
X1228098Y666816D01*
X1228092Y666694D01*
X1228090Y666572D01*
X1228092Y666450D01*
X1228098Y666328D01*
X1228108Y666206D01*
X1228121Y666085D01*
X1228139Y665964D01*
X1228160Y665844D01*
X1228186Y665724D01*
X1228215Y665606D01*
X1228247Y665488D01*
X1228284Y665371D01*
X1228324Y665256D01*
X1228368Y665142D01*
X1228416Y665030D01*
X1228467Y664919D01*
X1228522Y664810D01*
X1228580Y664702D01*
X1228642Y664597D01*
X1228707Y664494D01*
X1228775Y664392D01*
X1228847Y664293D01*
X1228921Y664197D01*
X1228999Y664102D01*
X1229080Y664011D01*
X1229163Y663921D01*
X1229249Y663835D01*
X1229339Y663752D01*
X1229430Y663671D01*
X1229525Y663593D01*
X1229621Y663519D01*
X1229720Y663447D01*
X1229822Y663379D01*
X1229925Y663314D01*
X1230030Y663252D01*
X1230138Y663194D01*
X1230247Y663139D01*
X1230358Y663088D01*
X1230470Y663040D01*
X1230584Y662996D01*
X1230699Y662956D01*
X1230816Y662919D01*
X1230934Y662887D01*
X1231052Y662858D01*
X1231172Y662832D01*
X1231292Y662811D01*
X1231413Y662793D01*
X1231534Y662780D01*
X1231656Y662770D01*
X1231778Y662764D01*
X1231900Y662762D01*
X1232022Y662764D01*
X1232144Y662770D01*
X1232266Y662780D01*
X1232387Y662793D01*
X1232508Y662811D01*
X1232628Y662832D01*
X1232748Y662858D01*
X1232866Y662887D01*
X1232984Y662919D01*
X1233101Y662956D01*
X1233216Y662996D01*
X1233330Y663040D01*
X1233442Y663088D01*
X1233553Y663139D01*
X1233662Y663194D01*
X1233770Y663252D01*
X1233875Y663314D01*
X1233978Y663379D01*
X1234080Y663447D01*
X1234179Y663519D01*
X1234275Y663593D01*
X1234370Y663671D01*
X1234461Y663752D01*
X1234551Y663835D01*
X1234637Y663921D01*
X1234720Y664011D01*
X1234801Y664102D01*
X1234879Y664197D01*
X1234953Y664293D01*
X1235025Y664392D01*
X1235093Y664494D01*
X1235158Y664597D01*
X1235220Y664702D01*
X1235278Y664810D01*
X1235333Y664919D01*
X1235384Y665030D01*
X1235432Y665142D01*
X1235476Y665256D01*
X1235516Y665371D01*
X1235553Y665488D01*
X1235585Y665606D01*
X1235614Y665724D01*
X1235640Y665844D01*
X1235661Y665964D01*
X1235679Y666085D01*
X1235692Y666206D01*
X1235702Y666328D01*
X1235708Y666450D01*
X1235710Y666572D01*
X1235708Y666694D01*
X1235702Y666816D01*
X1235692Y666938D01*
X1235679Y667059D01*
X1235661Y667180D01*
X1235640Y667300D01*
X1235614Y667420D01*
X1235585Y667538D01*
X1235553Y667656D01*
X1235516Y667773D01*
X1235476Y667888D01*
X1235432Y668002D01*
X1235384Y668114D01*
X1235333Y668225D01*
X1235278Y668334D01*
X1235220Y668442D01*
X1235158Y668547D01*
X1235093Y668650D01*
X1235025Y668752D01*
X1234953Y668851D01*
X1234879Y668947D01*
X1234801Y669042D01*
X1234720Y669133D01*
X1234637Y669223D01*
X1234551Y669309D01*
X1234461Y669392D01*
X1234370Y669473D01*
X1234275Y669551D01*
X1234179Y669625D01*
X1234080Y669697D01*
X1233978Y669765D01*
X1233875Y669830D01*
X1233770Y669892D01*
X1233662Y669950D01*
X1233553Y670005D01*
X1233442Y670056D01*
X1233330Y670104D01*
X1233216Y670148D01*
X1233101Y670188D01*
X1232984Y670225D01*
X1232866Y670257D01*
X1232748Y670286D01*
X1232628Y670312D01*
X1232508Y670333D01*
X1232387Y670351D01*
X1232266Y670364D01*
X1232144Y670374D01*
X1232022Y670380D01*
X1231900Y670382D01*
M02*
