G04 EAGLE Gerber RS-274X export*
G75*
%MOMM*%
%FSLAX34Y34*%
%LPD*%
%INSoldermask Bottom*%
%IPPOS*%
%AMOC8*
5,1,8,0,0,1.08239X$1,22.5*%
G01*
G04 Define Apertures*
%ADD10C,2.703200*%
%ADD11C,3.503200*%
%ADD12R,2.303200X2.303200*%
%ADD13C,2.303200*%
%ADD14C,2.755900*%
%ADD15C,1.853200*%
%ADD16R,1.498600X1.498600*%
D10*
X1029944Y555493D03*
X1309998Y555478D03*
D11*
X1544600Y385600D03*
X1544600Y944600D03*
X118900Y944600D03*
X118900Y385600D03*
D12*
X165100Y889000D03*
D13*
X207100Y889000D03*
X249100Y889000D03*
X291100Y889000D03*
X165100Y834000D03*
X207100Y834000D03*
X249100Y834000D03*
X291100Y834000D03*
D14*
X1473200Y736600D03*
X1473200Y654100D03*
X1473200Y571600D03*
X1473200Y489100D03*
D15*
X1485900Y406400D03*
X1460500Y406400D03*
X1435100Y406400D03*
X1409700Y406400D03*
D12*
X368300Y889000D03*
D13*
X410300Y889000D03*
X452300Y889000D03*
X494300Y889000D03*
X368300Y834000D03*
X410300Y834000D03*
X452300Y834000D03*
X494300Y834000D03*
D12*
X571500Y889000D03*
D13*
X613500Y889000D03*
X655500Y889000D03*
X697500Y889000D03*
X571500Y834000D03*
X613500Y834000D03*
X655500Y834000D03*
X697500Y834000D03*
D12*
X774700Y889000D03*
D13*
X816700Y889000D03*
X858700Y889000D03*
X900700Y889000D03*
X774700Y834000D03*
X816700Y834000D03*
X858700Y834000D03*
X900700Y834000D03*
D12*
X977900Y889000D03*
D13*
X1019900Y889000D03*
X1061900Y889000D03*
X1103900Y889000D03*
X977900Y834000D03*
X1019900Y834000D03*
X1061900Y834000D03*
X1103900Y834000D03*
D12*
X1181100Y889000D03*
D13*
X1223100Y889000D03*
X1265100Y889000D03*
X1307100Y889000D03*
X1181100Y834000D03*
X1223100Y834000D03*
X1265100Y834000D03*
X1307100Y834000D03*
D12*
X1384300Y889000D03*
D13*
X1426300Y889000D03*
X1468300Y889000D03*
X1510300Y889000D03*
X1384300Y834000D03*
X1426300Y834000D03*
X1468300Y834000D03*
X1510300Y834000D03*
D15*
X622300Y495300D03*
X622300Y469900D03*
X647700Y495300D03*
X647700Y469900D03*
X673100Y495300D03*
X673100Y469900D03*
X698500Y469900D03*
X698500Y495300D03*
X723900Y469900D03*
X723900Y495300D03*
X838200Y495300D03*
X838200Y469900D03*
X863600Y495300D03*
X863600Y469900D03*
X889000Y495300D03*
X889000Y469900D03*
X914400Y469900D03*
X914400Y495300D03*
X939800Y469900D03*
X939800Y495300D03*
X190500Y495300D03*
X190500Y469900D03*
X215900Y495300D03*
X215900Y469900D03*
X241300Y495300D03*
X241300Y469900D03*
X266700Y469900D03*
X266700Y495300D03*
X292100Y469900D03*
X292100Y495300D03*
X406400Y495300D03*
X406400Y469900D03*
X431800Y495300D03*
X431800Y469900D03*
X457200Y495300D03*
X457200Y469900D03*
X482600Y469900D03*
X482600Y495300D03*
X508000Y469900D03*
X508000Y495300D03*
D16*
X165100Y635000D03*
X190500Y635000D03*
X215900Y635000D03*
X241300Y635000D03*
X266700Y635000D03*
X292100Y635000D03*
X317500Y635000D03*
X342900Y635000D03*
X368300Y635000D03*
X368300Y711200D03*
X342900Y711200D03*
X317500Y711200D03*
X292100Y711200D03*
X266700Y711200D03*
X241300Y711200D03*
X215900Y711200D03*
X190500Y711200D03*
X165100Y711200D03*
X444500Y635000D03*
X469900Y635000D03*
X495300Y635000D03*
X520700Y635000D03*
X546100Y635000D03*
X571500Y635000D03*
X596900Y635000D03*
X622300Y635000D03*
X647700Y635000D03*
X647700Y711200D03*
X622300Y711200D03*
X596900Y711200D03*
X571500Y711200D03*
X546100Y711200D03*
X520700Y711200D03*
X495300Y711200D03*
X469900Y711200D03*
X444500Y711200D03*
X723900Y635000D03*
X749300Y635000D03*
X774700Y635000D03*
X800100Y635000D03*
X825500Y635000D03*
X850900Y635000D03*
X876300Y635000D03*
X901700Y635000D03*
X927100Y635000D03*
X927100Y711200D03*
X901700Y711200D03*
X876300Y711200D03*
X850900Y711200D03*
X825500Y711200D03*
X800100Y711200D03*
X774700Y711200D03*
X749300Y711200D03*
X723900Y711200D03*
D15*
X1198880Y419100D03*
X1173480Y419100D03*
X1148080Y419100D03*
M02*
