G04 EAGLE Gerber RS-274X export*
G75*
%MOMM*%
%FSLAX34Y34*%
%LPD*%
%INSoldermask Bottom*%
%IPPOS*%
%AMOC8*
5,1,8,0,0,1.08239X$1,22.5*%
G01*
G04 Define Apertures*
%ADD10C,2.703200*%
%ADD11C,3.403200*%
%ADD12R,2.303200X2.303200*%
%ADD13C,2.303200*%
%ADD14R,1.498600X1.498600*%
%ADD15C,2.984500*%
%ADD16C,1.853200*%
D10*
X771388Y403296D03*
X1051458Y403233D03*
D11*
X182400Y195100D03*
X182400Y804900D03*
X1265200Y804900D03*
X1265200Y195100D03*
D12*
X254000Y762000D03*
D13*
X296000Y762000D03*
X338000Y762000D03*
X380000Y762000D03*
X254000Y707000D03*
X296000Y707000D03*
X338000Y707000D03*
X380000Y707000D03*
D12*
X457200Y762000D03*
D13*
X499200Y762000D03*
X541200Y762000D03*
X583200Y762000D03*
X457200Y707000D03*
X499200Y707000D03*
X541200Y707000D03*
X583200Y707000D03*
D12*
X660400Y762000D03*
D13*
X702400Y762000D03*
X744400Y762000D03*
X786400Y762000D03*
X660400Y707000D03*
X702400Y707000D03*
X744400Y707000D03*
X786400Y707000D03*
D12*
X863600Y762000D03*
D13*
X905600Y762000D03*
X947600Y762000D03*
X989600Y762000D03*
X863600Y707000D03*
X905600Y707000D03*
X947600Y707000D03*
X989600Y707000D03*
D12*
X1066800Y762000D03*
D13*
X1108800Y762000D03*
X1150800Y762000D03*
X1192800Y762000D03*
X1066800Y707000D03*
X1108800Y707000D03*
X1150800Y707000D03*
X1192800Y707000D03*
D14*
X254000Y520700D03*
X279400Y520700D03*
X304800Y520700D03*
X330200Y520700D03*
X355600Y520700D03*
X381000Y520700D03*
X406400Y520700D03*
X431800Y520700D03*
X457200Y520700D03*
X457200Y596900D03*
X431800Y596900D03*
X406400Y596900D03*
X381000Y596900D03*
X355600Y596900D03*
X330200Y596900D03*
X304800Y596900D03*
X279400Y596900D03*
X254000Y596900D03*
X508000Y520700D03*
X533400Y520700D03*
X558800Y520700D03*
X584200Y520700D03*
X609600Y520700D03*
X635000Y520700D03*
X660400Y520700D03*
X685800Y520700D03*
X711200Y520700D03*
X711200Y596900D03*
X685800Y596900D03*
X660400Y596900D03*
X635000Y596900D03*
X609600Y596900D03*
X584200Y596900D03*
X558800Y596900D03*
X533400Y596900D03*
X508000Y596900D03*
D15*
X1231900Y571500D03*
X1231900Y489001D03*
X1231900Y406502D03*
X1231900Y324002D03*
D16*
X304800Y393700D03*
X304800Y368300D03*
X330200Y393700D03*
X330200Y368300D03*
X355600Y393700D03*
X355600Y368300D03*
X381000Y368300D03*
X381000Y393700D03*
X406400Y368300D03*
X406400Y393700D03*
X533400Y393700D03*
X533400Y368300D03*
X558800Y393700D03*
X558800Y368300D03*
X584200Y393700D03*
X584200Y368300D03*
X609600Y368300D03*
X609600Y393700D03*
X635000Y368300D03*
X635000Y393700D03*
M02*
