M48
;GenerationSoftware,Autodesk,EAGLE,9.7.0*%
;CreationDate,2024-10-29T18:34:22Z*%
FMAT,2
ICI,OFF
METRIC,TZ,000.000
T6C0.787
T5C1.100
T4C1.400
T3C1.854
T2C2.500
T1C3.200
%
G90
M71
T1
X18240Y19510
X18240Y80490
X126520Y80490
X126520Y19510
T2
X77139Y40330
X105146Y40323
T3
X123190Y32400
X123190Y40650
X123190Y48900
X123190Y57150
T4
X25400Y70700
X29600Y70700
X33800Y70700
X38000Y70700
X45720Y76200
X49920Y76200
X54120Y76200
X58320Y76200
X45720Y70700
X49920Y70700
X54120Y70700
X58320Y70700
X66040Y76200
X70240Y76200
X74440Y76200
X78640Y76200
X66040Y70700
X70240Y70700
X74440Y70700
X78640Y70700
X86360Y76200
X90560Y76200
X94760Y76200
X98960Y76200
X86360Y70700
X90560Y70700
X94760Y70700
X25400Y76200
X106680Y76200
X110880Y76200
X115080Y76200
X119280Y76200
X106680Y70700
X98960Y70700
X115080Y70700
X119280Y70700
X29600Y76200
X33800Y76200
X38000Y76200
X110880Y70700
T5
X60960Y36830
X60960Y39370
X63500Y36830
X63500Y39370
X38100Y36830
X30480Y39370
X30480Y36830
X33020Y39370
X33020Y36830
X35560Y39370
X35560Y36830
X38100Y39370
X40640Y36830
X40640Y39370
X53340Y39370
X53340Y36830
X55880Y39370
X55880Y36830
X58420Y39370
X58420Y36830
T6
X25400Y52070
X27940Y52070
X30480Y52070
X71120Y59690
X68580Y59690
X66040Y59690
X63500Y59690
X60960Y59690
X58420Y59690
X45720Y52070
X53340Y59690
X50800Y59690
X40640Y52070
X38100Y52070
X35560Y52070
X33020Y52070
X45720Y59690
X43180Y59690
X40640Y59690
X38100Y59690
X35560Y59690
X33020Y59690
X43180Y52070
X30480Y59690
X27940Y59690
X25400Y59690
X50800Y52070
X53340Y52070
X55880Y52070
X58420Y52070
X60960Y52070
X63500Y52070
X66040Y52070
X68580Y52070
X71120Y52070
X55880Y59690
M30