M48
;GenerationSoftware,Autodesk,EAGLE,9.7.0*%
;CreationDate,2024-10-31T16:36:40Z*%
FMAT,2
ICI,OFF
METRIC,TZ,000.000
T6C0.787
T5C1.100
T4C1.400
T3C1.702
T2C2.500
T1C3.300
%
G90
M71
T1
X154460Y38560
X154460Y94460
X11890Y94460
X11890Y38560
T2
X102994Y55549
X131000Y55548
T3
X147320Y48910
X147320Y73660
X147320Y57160
X147320Y65410
T4
X16510Y88900
X20710Y88900
X29110Y88900
X16510Y83400
X20710Y83400
X24910Y83400
X29110Y83400
X24910Y88900
X138430Y83400
X142630Y83400
X85870Y88900
X146830Y83400
X36830Y88900
X41030Y88900
X45230Y88900
X49430Y88900
X36830Y83400
X41030Y83400
X45230Y83400
X49430Y83400
X57150Y88900
X61350Y88900
X65550Y88900
X69750Y88900
X57150Y83400
X61350Y83400
X65550Y83400
X69750Y83400
X77470Y88900
X81670Y88900
X151030Y83400
X90070Y88900
X77470Y83400
X81670Y83400
X85870Y83400
X90070Y83400
X97790Y88900
X101990Y88900
X106190Y88900
X110390Y88900
X97790Y83400
X101990Y83400
X106190Y83400
X110390Y83400
X118110Y88900
X122310Y88900
X126510Y88900
X130710Y88900
X118110Y83400
X122310Y83400
X126510Y83400
X130710Y83400
X138430Y88900
X142630Y88900
X146830Y88900
X151030Y88900
T5
X148590Y40640
X146050Y40640
X140970Y40640
X143510Y40640
X62230Y49530
X62230Y46990
X64770Y49530
X64770Y46990
X67310Y49530
X67310Y46990
X69850Y46990
X69850Y49530
X72390Y46990
X72390Y49530
X83820Y49530
X83820Y46990
X86360Y49530
X86360Y46990
X88900Y49530
X88900Y46990
X91440Y46990
X91440Y49530
X93980Y46990
X93980Y49530
X19050Y49530
X19050Y46990
X21590Y49530
X21590Y46990
X24130Y49530
X24130Y46990
X26670Y46990
X26670Y49530
X29210Y46990
X29210Y49530
X40640Y49530
X40640Y46990
X43180Y49530
X43180Y46990
X45720Y49530
X45720Y46990
X48260Y46990
X48260Y49530
X50800Y46990
X50800Y49530
X114808Y41910
X119888Y41910
X117348Y41910
T6
X24130Y63500
X26670Y63500
X29210Y63500
X31750Y63500
X34290Y63500
X36830Y63500
X36830Y71120
X34290Y71120
X31750Y71120
X29210Y71120
X26670Y71120
X24130Y71120
X21590Y71120
X16510Y63500
X16510Y71120
X44450Y63500
X46990Y63500
X49530Y63500
X52070Y63500
X54610Y63500
X57150Y63500
X59690Y63500
X62230Y63500
X64770Y63500
X64770Y71120
X62230Y71120
X59690Y71120
X57150Y71120
X54610Y71120
X52070Y71120
X49530Y71120
X46990Y71120
X44450Y71120
X19050Y71120
X74930Y63500
X77470Y63500
X80010Y63500
X82550Y63500
X85090Y63500
X87630Y63500
X90170Y63500
X92710Y63500
X92710Y71120
X90170Y71120
X87630Y71120
X85090Y71120
X82550Y71120
X80010Y71120
X77470Y71120
X74930Y71120
X72390Y71120
X19050Y63500
X21590Y63500
X72390Y63500
M30